<svg width="1200" height="630" viewBox="0 0 1200 630" xmlns="http://www.w3.org/2000/svg">
  <defs>
    <pattern id="dots" x="0" y="0" width="28" height="28" patternUnits="userSpaceOnUse">
      <circle cx="1" cy="1" r="1" fill="#61B67C" fill-opacity="0.12"/>
    </pattern>
    <radialGradient id="leftGlow" cx="25%" cy="50%" r="55%">
      <stop offset="0%" stop-color="#0f2218" stop-opacity="1"/>
      <stop offset="100%" stop-color="#0a0a0a" stop-opacity="0"/>
    </radialGradient>
  </defs>

  <rect width="1200" height="630" fill="#0a0a0a"/>
  <rect width="1200" height="630" fill="url(#leftGlow)"/>
  <rect width="1200" height="630" fill="url(#dots)"/>
  <rect x="0" y="0" width="1200" height="3" fill="#61B67C"/>

  <rect x="80" y="108" width="36" height="3" fill="#61B67C" rx="2"/>
  <text x="126" y="118" font-family="Inter, system-ui, sans-serif" font-size="12" font-weight="700" fill="#61B67C" letter-spacing="2.5">MARKETING STRATEGY</text>
  <text x="80" y="205" font-family="Inter, system-ui, sans-serif" font-size="60" font-weight="800" fill="#f5f5f5" letter-spacing="-2.5">How to Saturate</text>
  <text x="80" y="278" font-family="Inter, system-ui, sans-serif" font-size="60" font-weight="800" fill="#f5f5f5" letter-spacing="-2.5">Your Local Market</text>
  <text x="80" y="330" font-family="Inter, system-ui, sans-serif" font-size="18" font-weight="400" fill="#737373">The customer acquisition infrastructure every</text>
  <text x="80" y="357" font-family="Inter, system-ui, sans-serif" font-size="18" font-weight="400" fill="#737373">local service business needs to build.</text>
  <rect x="80" y="387" width="510" height="1" fill="rgba(97,182,124,0.25)"/>
  <rect x="80" y="406" width="68" height="28" rx="14" fill="rgba(97,182,124,0.1)" stroke="rgba(97,182,124,0.35)" stroke-width="1"/>
  <text x="114" y="424" font-family="Inter, system-ui, sans-serif" font-size="11" font-weight="700" fill="#61B67C" text-anchor="middle" letter-spacing="0.5">GMB</text>
  <rect x="160" y="406" width="104" height="28" rx="14" fill="rgba(97,182,124,0.1)" stroke="rgba(97,182,124,0.35)" stroke-width="1"/>
  <text x="212" y="424" font-family="Inter, system-ui, sans-serif" font-size="11" font-weight="700" fill="#61B67C" text-anchor="middle" letter-spacing="0.5">LOCAL SEO</text>
  <rect x="276" y="406" width="94" height="28" rx="14" fill="rgba(97,182,124,0.1)" stroke="rgba(97,182,124,0.35)" stroke-width="1"/>
  <text x="323" y="424" font-family="Inter, system-ui, sans-serif" font-size="11" font-weight="700" fill="#61B67C" text-anchor="middle" letter-spacing="0.5">PAID ADS</text>
  <rect x="382" y="406" width="92" height="28" rx="14" fill="rgba(97,182,124,0.1)" stroke="rgba(97,182,124,0.35)" stroke-width="1"/>
  <text x="428" y="424" font-family="Inter, system-ui, sans-serif" font-size="11" font-weight="700" fill="#61B67C" text-anchor="middle" letter-spacing="0.5">REVIEWS</text>
  <text x="80" y="565" font-family="Inter, system-ui, sans-serif" font-size="26" font-weight="800" fill="#f5f5f5" letter-spacing="-1">njt<tspan fill="#61B67C">.</tspan></text>
  <text x="80" y="591" font-family="Inter, system-ui, sans-serif" font-size="13" font-weight="500" fill="#525252">natethoreson.com</text>

  <line x1="660" y1="50" x2="660" y2="580" stroke="rgba(255,255,255,0.05)" stroke-width="1"/>
  <line x1="730" y1="40" x2="730" y2="590" stroke="rgba(255,255,255,0.07)" stroke-width="1.5"/>
  <line x1="840" y1="40" x2="840" y2="590" stroke="rgba(255,255,255,0.07)" stroke-width="1.5"/>
  <line x1="950" y1="40" x2="950" y2="590" stroke="rgba(255,255,255,0.07)" stroke-width="1.5"/>
  <line x1="1060" y1="40" x2="1060" y2="590" stroke="rgba(255,255,255,0.07)" stroke-width="1.5"/>
  <line x1="1160" y1="40" x2="1160" y2="590" stroke="rgba(255,255,255,0.07)" stroke-width="1.5"/>
  <line x1="680" y1="130" x2="1200" y2="130" stroke="rgba(255,255,255,0.07)" stroke-width="1.5"/>
  <line x1="680" y1="260" x2="1200" y2="260" stroke="rgba(255,255,255,0.07)" stroke-width="1.5"/>
  <line x1="680" y1="390" x2="1200" y2="390" stroke="rgba(255,255,255,0.07)" stroke-width="1.5"/>
  <line x1="680" y1="500" x2="1200" y2="500" stroke="rgba(255,255,255,0.07)" stroke-width="1.5"/>
  <rect x="740" y="140" width="90" height="110" rx="3" fill="rgba(255,255,255,0.025)" stroke="rgba(255,255,255,0.07)" stroke-width="1"/>
  <rect x="850" y="140" width="90" height="110" rx="3" fill="rgba(255,255,255,0.025)" stroke="rgba(255,255,255,0.07)" stroke-width="1"/>
  <rect x="960" y="140" width="90" height="110" rx="3" fill="rgba(255,255,255,0.025)" stroke="rgba(255,255,255,0.07)" stroke-width="1"/>
  <rect x="1070" y="140" width="80" height="110" rx="3" fill="rgba(255,255,255,0.025)" stroke="rgba(255,255,255,0.07)" stroke-width="1"/>
  <rect x="740" y="270" width="90" height="110" rx="3" fill="rgba(255,255,255,0.025)" stroke="rgba(255,255,255,0.07)" stroke-width="1"/>
  <rect x="960" y="270" width="90" height="110" rx="3" fill="rgba(97,182,124,0.05)" stroke="rgba(97,182,124,0.2)" stroke-width="1"/>
  <rect x="1070" y="270" width="80" height="110" rx="3" fill="rgba(255,255,255,0.025)" stroke="rgba(255,255,255,0.07)" stroke-width="1"/>
  <rect x="740" y="400" width="90" height="90" rx="3" fill="rgba(255,255,255,0.025)" stroke="rgba(255,255,255,0.07)" stroke-width="1"/>
  <rect x="850" y="400" width="90" height="90" rx="3" fill="rgba(255,255,255,0.025)" stroke="rgba(255,255,255,0.07)" stroke-width="1"/>
  <rect x="960" y="400" width="90" height="90" rx="3" fill="rgba(255,255,255,0.025)" stroke="rgba(255,255,255,0.07)" stroke-width="1"/>
  <rect x="1070" y="400" width="80" height="90" rx="3" fill="rgba(255,255,255,0.025)" stroke="rgba(255,255,255,0.07)" stroke-width="1"/>
  <circle cx="895" cy="320" r="88" fill="#61B67C" fill-opacity="0.05"/>
  <circle cx="895" cy="320" r="58" fill="#61B67C" fill-opacity="0.08"/>
  <circle cx="895" cy="320" r="30" fill="#61B67C" fill-opacity="0.13"/>
  <circle cx="895" cy="320" r="90" fill="none" stroke="#61B67C" stroke-opacity="0.08" stroke-width="1.5"/>
  <path d="M895,252 C877,252 862,267 862,285 C862,308 895,338 895,338 C895,338 928,308 928,285 C928,267 913,252 895,252 Z" fill="#61B67C"/>
  <circle cx="895" cy="285" r="12" fill="#0a0a0a"/>
  <ellipse cx="895" cy="345" rx="17" ry="5" fill="#61B67C" fill-opacity="0.28"/>
  <circle cx="1115" cy="150" r="24" fill="#61B67C" fill-opacity="0.05"/>
  <path d="M1115,122 C1106,122 1099,129 1099,138 C1099,150 1115,165 1115,165 C1115,165 1131,150 1131,138 C1131,129 1124,122 1115,122 Z" fill="#61B67C" fill-opacity="0.55"/>
  <circle cx="1115" cy="138" r="7" fill="#0a0a0a"/>
  <ellipse cx="1115" cy="169" rx="9" ry="3" fill="#61B67C" fill-opacity="0.18"/>
  <circle cx="762" cy="440" r="20" fill="#61B67C" fill-opacity="0.04"/>
  <path d="M762,416 C754,416 748,422 748,430 C748,441 762,453 762,453 C762,453 776,441 776,430 C776,422 770,416 762,416 Z" fill="#61B67C" fill-opacity="0.45"/>
  <circle cx="762" cy="430" r="6" fill="#0a0a0a"/>
  <ellipse cx="762" cy="457" rx="8" ry="3" fill="#61B67C" fill-opacity="0.14"/>
  <line x1="1107" y1="160" x2="916" y2="268" stroke="#61B67C" stroke-opacity="0.2" stroke-width="1.5" stroke-dasharray="5 5"/>
  <line x1="874" y1="332" x2="774" y2="428" stroke="#61B67C" stroke-opacity="0.2" stroke-width="1.5" stroke-dasharray="5 5"/>
</svg>